# xmcd
#
# Track frame offsets: 
#        150
#        14622
#        49264
#        82281
#        108073
#        133961
#        160862
#        186761
#        215607
#        247490
#        279822
#        298556
#
# Disc length: 4672 seconds
#
# Revision: 0
# Processed by: cddbd v1.5.2PL0 Copyright (c) Steve Scherf et al.
# Submitted via: ExactAudioCopy v0.99pb5
#
DISCID=b8123e0c
DTITLE=Elliot Murphy - Alive In Paris
DYEAR=2009
DGENRE=Blues
TTITLE0=Crepescule
TTITLE1=Sonny
TTITLE2=Green River
TTITLE3=Pneumonia Alley
TTITLE4=Ophelia
TTITLE5=Canaries In My Mind
TTITLE6=You Never Know What You´re In For
TTITLE7=Last Of The Rock Stars
TTITLE8=On Elvis Presley´s Birthday
TTITLE9=A Touch Of Kindness
TTITLE10=And General Robert E.Lee
TTITLE11=Diamonds By The Yard
EXTD=
EXTT0=
EXTT1=
EXTT2=
EXTT3=
EXTT4=
EXTT5=
EXTT6=
EXTT7=
EXTT8=
EXTT9=
EXTT10=
EXTT11=
PLAYORDER=
